<?xml version="1.0" standalone="no"?><!DOCTYPE svg PUBLIC "-//W3C//DTD SVG 1.1//EN" "http://www.w3.org/Graphics/SVG/1.1/DTD/svg11.dtd"><svg t="1768445060800" class="icon" viewBox="0 0 1024 1024" version="1.1" xmlns="http://www.w3.org/2000/svg" p-id="9751" xmlns:xlink="http://www.w3.org/1999/xlink" width="200" height="200"><path d="M0 0h1024v1024H0V0z" fill="#202425" opacity=".01" p-id="9752"></path><path d="M68.266667 228.2496a34.133333 34.133333 0 0 1 21.879466-31.880533l409.6-157.525334a34.133333 34.133333 0 0 1 24.507734 0l409.6 157.525334a34.133333 34.133333 0 0 1 21.879466 31.880533v318.805333a341.333333 341.333333 0 0 1-179.5072 300.544l-248.046933 133.563734a34.133333 34.133333 0 0 1-32.3584 0l-248.046933-133.563734A341.333333 341.333333 0 0 1 68.266667 547.054933v-318.805333z" fill="#FFAA44" p-id="9753"></path><path d="M512 36.5568a34.133333 34.133333 0 0 0-12.253867 2.286933l-409.6 157.525334A34.133333 34.133333 0 0 0 68.266667 228.2496v318.805333a341.333333 341.333333 0 0 0 179.5072 300.544l248.046933 133.563734a34.133333 34.133333 0 0 0 16.1792 4.096V36.522667z" fill="#11AA66" p-id="9754"></path><path d="M512 238.933333a34.133333 34.133333 0 0 1 34.133333 34.133334v170.666666h170.666667a34.133333 34.133333 0 1 1 0 68.266667h-170.666667v170.666667a34.133333 34.133333 0 1 1-68.266666 0v-170.666667H307.2a34.133333 34.133333 0 1 1 0-68.266667h170.666667V273.066667a34.133333 34.133333 0 0 1 34.133333-34.133334z" fill="#FFFFFF" p-id="9755"></path></svg>