<?xml version="1.0" standalone="no"?><!DOCTYPE svg PUBLIC "-//W3C//DTD SVG 1.1//EN" "http://www.w3.org/Graphics/SVG/1.1/DTD/svg11.dtd"><svg t="1768448445156" class="icon" viewBox="0 0 1024 1024" version="1.1" xmlns="http://www.w3.org/2000/svg" p-id="6802" xmlns:xlink="http://www.w3.org/1999/xlink" width="200" height="200"><path d="M877.952621 344.694619a45.096938 45.096938 0 0 1 22.470645 38.961133l0.696319 397.205313a45.055978 45.055978 0 0 1-22.536181 39.141357l-343.318363 198.000545a44.826602 44.826602 0 0 1-44.867562-0.04096l-344.399707-199.409568a45.113322 45.113322 0 0 1-22.462453-38.952941l-0.65536-397.180738a45.121514 45.121514 0 0 1 22.536181-39.149549l343.318363-197.992353a44.826602 44.826602 0 0 1 44.818411 0z" fill="#E5EBFF" p-id="6803"></path><path d="M218.701737 282.40268a42.737643 42.737643 0 1 0 85.475287 0 42.737643 42.737643 0 1 0-85.475287 0Z" fill="#FFFFFF" p-id="6804"></path><path d="M261.439381 264.241025a18.161655 18.161655 0 1 0 18.161655 18.161655 18.186231 18.186231 0 0 0-18.161655-18.161655m0-24.575988a42.737643 42.737643 0 1 1-42.737644 42.737643 42.737643 42.737643 0 0 1 42.737644-42.737643z" fill="#396AFC" p-id="6805"></path><path d="M335.011697 123.953093a16.973816 16.973816 0 1 0 33.947632 0 16.973816 16.973816 0 1 0-33.947632 0Z" fill="#396AFC" p-id="6806"></path><path d="M617.955049 140.9351a11.321339 11.321339 0 1 0 22.642678 0 11.321339 11.321339 0 1 0-22.642678 0Z" fill="#396AFC" p-id="6807"></path><path d="M557.055751 8.191996m-8.191996 0a8.191996 8.191996 0 1 0 16.383992 0 8.191996 8.191996 0 1 0-16.383992 0Z" fill="#396AFC" p-id="6808"></path><path d="M499.113762 78.684122m-5.660669 0a5.660669 5.660669 0 1 0 11.321339 0 5.660669 5.660669 0 1 0-11.321339 0Z" fill="#396AFC" p-id="6809"></path><path d="M753.770152 152.248247m-11.321338 0a11.321339 11.321339 0 1 0 22.642677 0 11.321339 11.321339 0 1 0-22.642677 0Z" fill="#396AFC" p-id="6810"></path><path d="M448.192315 265.428865a22.634485 22.634485 0 1 0 45.26897 0 22.634485 22.634485 0 1 0-45.26897 0Z" fill="#396AFC" p-id="6811"></path><path d="M832.994946 305.037166a16.973816 16.973816 0 1 0 33.947632 0 16.973816 16.973816 0 1 0-33.947632 0Z" fill="#396AFC" p-id="6812"></path><path d="M506.822431 704.372398h-23.551989l-15.88428-15.892472a10.395643 10.395643 0 1 0-14.696441 14.69644l1.187839 1.18784h-45.793258a102.170575 102.170575 0 0 1-10.387451-203.980702 126.975939 126.975939 0 0 1 114.302921-67.993568 129.777602 129.777602 0 0 1 128.147395 101.98216 87.187414 87.187414 0 0 1 79.667162 84.975575 84.983767 84.983767 0 0 1-86.605783 85.024727H536.207121l30.818289-30.818289a10.395643 10.395643 0 0 0-14.696441-14.696441l-45.506538 45.51473z" fill="#9AB3FF" p-id="6813"></path><path d="M500.031266 687.988406l40.71422-40.714221a26.771443 26.771443 0 1 1 37.863406 37.847022l-2.842622 2.867199h57.442276a68.698079 68.698079 0 0 0 70.22179-68.632543 67.63312 67.63312 0 0 0-19.103734-46.505962 70.402014 70.402014 0 0 0-45.465579-22.118389l-12.23065-0.958464-2.523135-12.009466a111.411147 111.411147 0 0 0-38.887405-63.299554 113.868745 113.868745 0 0 0-33.415152-18.841591 117.596104 117.596104 0 0 0-39.821293-6.848508 110.452683 110.452683 0 0 0-99.672016 59.064291l-3.94035 7.733245-8.609788 1.089535a93.069267 93.069267 0 0 0-56.917989 28.614642 84.066264 84.066264 0 0 0 3.334143 117.424072 87.86735 87.86735 0 0 0 61.906914 25.288692h26.345459a26.787827 26.787827 0 0 1 44.539883-11.083771l11.083771 11.083771h9.977851m6.782973 16.383992h-23.543797l-15.88428-15.892472a10.395643 10.395643 0 1 0-14.696441 14.69644l1.187839 1.18784h-45.793258a102.170575 102.170575 0 0 1-10.387451-203.980702 126.975939 126.975939 0 0 1 114.302921-67.993568 129.777602 129.777602 0 0 1 128.147395 101.98216 87.187414 87.187414 0 0 1 79.667162 84.967383 84.983767 84.983767 0 0 1-86.605783 85.032919H536.207121l30.818289-30.818289a10.395643 10.395643 0 0 0-14.696441-14.696441z" fill="#262B3A" p-id="6814"></path><path d="M624.85271 568.164079l14.262265 1.06496v147.013561c0 54.353894-114.057161 112.934858-127.123395 112.934858-14.254073 0-127.115203-58.589156-127.115203-112.934858V569.237231l15.441913-1.06496a246.939529 246.939529 0 0 0 49.897448-10.649595 354.950998 354.950998 0 0 0 53.452774-22.372341l8.33126-4.26803 9.502716 4.259838a296.550258 296.550258 0 0 0 53.452774 22.372341 170.11499 170.11499 0 0 0 49.897448 10.649595z" fill="#396AFC" p-id="6815"></path><path d="M512.474908 549.04396l-1.155071 0.589824a372.735821 372.735821 0 0 1-55.943142 23.429109l-0.466943 0.147456a265.363329 265.363329 0 0 1-53.460967 11.304954h-0.188416v131.719105c0 16.474104 17.719287 38.903789 48.627689 61.538275a267.452288 267.452288 0 0 0 61.947874 34.742255 152.494007 152.494007 0 0 0 21.864438-9.895931 333.20944 333.20944 0 0 0 40.189933-25.001972c31.047665-22.659061 48.848873-45.055978 48.848872-61.390819V584.490727a194.969506 194.969506 0 0 1-52.936678-11.468794 320.110438 320.110438 0 0 1-55.705574-23.281653l-1.638399-0.729088m-0.475136-18.169847l9.502716 4.259838a296.550258 296.550258 0 0 0 53.452774 22.372341 170.11499 170.11499 0 0 0 49.897448 10.649595l14.262265 1.06496v147.013561c0 54.353894-114.057161 112.934858-127.123395 112.934858-14.254073 0-127.115203-58.589156-127.115203-112.934858v-146.964409l15.441913-1.06496a246.939529 246.939529 0 0 0 49.897448-10.649595 354.950998 354.950998 0 0 0 53.452774-22.372341z" fill="#262B3A" p-id="6816"></path><path d="M494.501669 700.997296l-35.725295-29.270002a1.884159 1.884159 0 0 0-2.383871 0l-13.672441 11.468794a1.867775 1.867775 0 0 0-0.16384 2.703359l60.456931 64.225249a1.884159 1.884159 0 0 0 3.096574-0.581632 417.472312 417.472312 0 0 1 86.400983-123.994052 1.843199 1.843199 0 0 0 0.425983-2.047999l-2.555902-6.152189a1.851391 1.851391 0 0 0-2.744319-0.8192 413.695801 413.695801 0 0 0-93.134803 84.467672z" fill="#FFFFFF" p-id="6817"></path><path d="M504.35664 758.906516a10.084347 10.084347 0 0 1-7.307261-3.153919l-60.465123-64.233441a10.059771 10.059771 0 0 1 0.892928-14.548985l13.688825-11.468794a10.076155 10.076155 0 0 1 12.80409-0.098304l29.409266 24.09266a423.943989 423.943989 0 0 1 89.759701-79.814618 10.043387 10.043387 0 0 1 14.811129 4.55475l2.555903 6.143997a9.969659 9.969659 0 0 1-2.301951 11.083771 410.345275 410.345275 0 0 0-84.50044 121.159622l-0.04096 0.098304a10.059771 10.059771 0 0 1-9.306107 6.184957z m-51.240935-73.727965l49.283048 52.355047a388.988741 388.988741 0 0 1 29.30277-50.921448 460.717859 460.717859 0 0 1 33.267696-43.728875 414.859065 414.859065 0 0 0-64.085985 63.250402 8.191996 8.191996 0 0 1-11.575291 1.204223l-31.670257-25.944051z" fill="#262B3A" p-id="6818"></path></svg>